<svg xmlns="http://www.w3.org/2000/svg" viewBox="0 0 64 64">
  <defs>
    <linearGradient id="chrome" x1="0" y1="0" x2="0" y2="1">
      <stop offset="0%" stop-color="#f8fbff"/>
      <stop offset="50%" stop-color="#8aa6c8"/>
      <stop offset="52%" stop-color="#5b7aa0"/>
      <stop offset="100%" stop-color="#cfe0f5"/>
    </linearGradient>
    <linearGradient id="neon" x1="0" y1="0" x2="1" y2="1">
      <stop offset="0%" stop-color="#93c5fd"/>
      <stop offset="100%" stop-color="#1d4ed8"/>
    </linearGradient>
    <filter id="glow" x="-40%" y="-40%" width="180%" height="180%">
      <feGaussianBlur stdDeviation="1.6" result="b"/>
      <feMerge><feMergeNode in="b"/><feMergeNode in="SourceGraphic"/></feMerge>
    </filter>
  </defs>
  <rect width="64" height="64" rx="14" fill="#0a0f1f"/>
  <g transform="translate(32,32) scale(0.5) translate(-50,-28)">
    <path d="M50,28 C40,11 18,11 18,28 C18,45 40,45 50,28 C60,11 82,11 82,28 C82,45 60,45 50,28 Z"
      fill="none" stroke="url(#neon)" stroke-width="12" stroke-linecap="round" opacity="0.6" filter="url(#glow)"/>
    <path d="M50,28 C40,11 18,11 18,28 C18,45 40,45 50,28 C60,11 82,11 82,28 C82,45 60,45 50,28 Z"
      fill="none" stroke="url(#chrome)" stroke-width="7.5" stroke-linecap="round"/>
  </g>
</svg>
